<?xml version="1.0" encoding="UTF-8" standalone="no"?>
<svg
   width="800px"
   height="800px"
   viewBox="0 0 48 48"
   version="1.1"
   id="svg1"
   sodipodi:docname="location.svg"
   inkscape:version="1.4 (86a8ad7, 2024-10-11)"
   xmlns:inkscape="http://www.inkscape.org/namespaces/inkscape"
   xmlns:sodipodi="http://sodipodi.sourceforge.net/DTD/sodipodi-0.dtd"
   xmlns="http://www.w3.org/2000/svg"
   xmlns:svg="http://www.w3.org/2000/svg">
  <defs
     id="defs1" />
  <sodipodi:namedview
     id="namedview1"
     pagecolor="#ffffff"
     bordercolor="#666666"
     borderopacity="1.0"
     inkscape:showpageshadow="2"
     inkscape:pageopacity="0.0"
     inkscape:pagecheckerboard="0"
     inkscape:deskcolor="#d1d1d1"
     showgrid="false"
     inkscape:zoom="1.03875"
     inkscape:cx="399.51865"
     inkscape:cy="400"
     inkscape:window-width="1920"
     inkscape:window-height="1011"
     inkscape:window-x="-8"
     inkscape:window-y="-8"
     inkscape:window-maximized="1"
     inkscape:current-layer="invisible_box" />
  <title
     id="title1">location-current</title>
  <g
     id="invisible_box"
     data-name="invisible box"
     inkscape:label="borderbox">
    <rect
       width="48"
       height="48"
       fill="none"
       id="rect1"
       x="0"
       y="0" />
  </g>
  <path
     d="M 44,22 H 39.9 A 16.1,16.1 0 0 0 26,8.1 V 8.1 4 A 2,2 0 0 0 22,4 V 8 8 A 16.1,16.1 0 0 0 8.1,22 H 4 a 2,2 0 0 0 0,4 H 8.1 A 16.1,16.1 0 0 0 22,39.9 v 0 4 a 2,2 0 0 0 4,0 V 40 40 A 16.1,16.1 0 0 0 39.9,26 H 44 a 2,2 0 0 0 0,-4 z M 24,36 A 12,12 0 1 1 36,24 12,12 0 0 1 24,36 Z"
     id="path1" />
  <circle
     cx="24"
     cy="24"
     r="7"
     id="circle1" />
</svg>
