<?xml version="1.0" encoding="UTF-8" standalone="no"?>
<!-- Created with Inkscape (http://www.inkscape.org/) -->

<svg
   sodipodi:docname="NaturalLight.svg"
   version="1.0"
   inkscape:version="1.3.2 (091e20e, 2023-11-25, custom)"
   sodipodi:version="0.32"
   id="svg5887"
   height="1024"
   width="1024"
   inkscape:export-xdpi="96"
   inkscape:export-ydpi="96"
   inkscape:export-filename="NaturalLight.svg.png"
   xmlns:inkscape="http://www.inkscape.org/namespaces/inkscape"
   xmlns:sodipodi="http://sodipodi.sourceforge.net/DTD/sodipodi-0.dtd"
   xmlns="http://www.w3.org/2000/svg"
   xmlns:svg="http://www.w3.org/2000/svg"
   xmlns:rdf="http://www.w3.org/1999/02/22-rdf-syntax-ns#"
   xmlns:cc="http://creativecommons.org/ns#"
   xmlns:dc="http://purl.org/dc/elements/1.1/">
  <defs
     id="defs5889" />
  <sodipodi:namedview
     id="base"
     pagecolor="#ffffff"
     bordercolor="#666666"
     borderopacity="1.0"
     gridtolerance="10000"
     guidetolerance="10"
     objecttolerance="10"
     inkscape:pageopacity="0.0"
     inkscape:pageshadow="2"
     inkscape:zoom="0.79589843"
     inkscape:cx="530.84663"
     inkscape:cy="440.38283"
     inkscape:document-units="px"
     inkscape:current-layer="layer3"
     inkscape:window-width="1920"
     inkscape:window-height="1011"
     inkscape:window-x="-8"
     inkscape:window-y="-8"
     showgrid="false"
     fit-margin-top="0"
     fit-margin-left="0"
     fit-margin-right="0"
     fit-margin-bottom="0"
     inkscape:window-maximized="1"
     inkscape:showpageshadow="2"
     inkscape:pagecheckerboard="0"
     inkscape:deskcolor="#d1d1d1" />
  <metadata
     id="metadata5892">
    <rdf:RDF>
      <cc:Work
         rdf:about="">
        <dc:format>image/svg+xml</dc:format>
        <dc:type
           rdf:resource="http://purl.org/dc/dcmitype/StillImage" />
      </cc:Work>
    </rdf:RDF>
  </metadata>
  <g
     inkscape:groupmode="layer"
     id="layer7"
     inkscape:label="Background"
     transform="translate(0,718.85245)"
     style="display:inline"
     sodipodi:insensitive="true">
    <rect
       style="opacity:1;vector-effect:none;fill:#7a7467;fill-opacity:1;stroke:#7a7467;stroke-width:11.2794;stroke-linecap:butt;stroke-linejoin:round;stroke-miterlimit:4;stroke-dasharray:none;stroke-dashoffset:0;stroke-opacity:1"
       id="rect834"
       width="1012.7206"
       height="1012.7206"
       x="5.6397095"
       y="-713.21277" />
  </g>
  <g
     inkscape:groupmode="layer"
     id="layer4"
     inkscape:label="Sun"
     transform="translate(0,718.85245)"
     style="display:inline">
    <path
       inkscape:connector-curvature="0"
       style="fill:#ffb700;fill-opacity:1;stroke-width:0.719385"
       d="m 598.10173,-264.35921 c 0,80.88116 -65.55737,146.43853 -146.43856,146.43853 -80.88108,0 -146.53998,-65.55737 -146.53998,-146.43853 0,-80.88117 65.55736,-146.54003 146.53998,-146.54003 80.88119,0.10129 146.43856,65.65886 146.43856,146.54003 z m -148.97561,-184.9002 c 20.29643,0 39.78098,3.24743 58.14923,9.23487 -23.34086,-49.21874 -13.09123,-102.59829 -13.09123,-102.59829 33.28612,-127.15692 -63.12174,-108.17981 -63.12174,-108.17981 72.3566,24.55868 10.04668,88.39082 10.04668,88.39082 -68.19584,60.99068 -70.63145,104.72941 -64.13659,127.66435 22.12308,-9.33632 46.5802,-14.51194 72.15365,-14.51194 z m -228.94338,-2.6385 c 0,89.50711 29.63276,121.06798 50.944,132.23102 13.70003,-42.52094 42.21648,-78.3441 79.46041,-101.48198 -49.42174,-16.64306 -80.27228,-57.13439 -80.27228,-57.13439 -72.55962,-109.49905 -122.69175,-25.06606 -122.69175,-25.06606 66.47073,-37.54831 72.55962,51.45141 72.55962,51.45141 z m 60.07734,270.34799 c -11.67036,-24.45712 -18.16524,-51.75579 -18.16524,-80.57668 0,-16.64307 2.23261,-32.88019 6.29186,-48.20395 -46.47872,22.73197 -96.50937,16.03414 -96.50937,16.03414 -128.780615,-26.08088 -104.526445,69.00777 -104.526445,69.00777 20.49934,-73.57444 87.680395,-14.91786 87.680395,-14.91786 59.56995,59.56996 101.38058,64.3396 125.2288,58.65658 z m 330.01944,-175.7668 c 23.94977,-43.43431 65.35444,-66.4707 65.35444,-66.4707 118.73389,-56.32248 42.2165,-117.92208 42.2165,-117.92208 27.70458,71.24038 -61.19361,64.54254 -61.19361,64.54254 -100.97463,-14.5119 -132.94145,19.789 -142.88666,39.47648 40.59278,14.8164 74.6907,43.53579 96.50933,80.37376 z m 220.72334,48.20395 c -20.49938,73.57445 -87.68042,14.91787 -87.68042,14.91787 -63.52772,-63.52772 -106.86054,-64.64403 -129.69401,-57.43884 14.5119,26.58828 22.73198,57.03286 22.73198,89.40567 0,12.58371 -1.21778,24.96451 -3.65334,36.93943 45.76834,-21.31123 93.87083,-14.81637 93.87083,-14.81637 128.67918,26.18237 104.42496,-69.00776 104.42496,-69.00776 z M 684.76733,-80.676816 c -0.91336,-93.261944 -33.2861,-123.300614 -54.80032,-132.941374 -11.46739,42.82537 -37.75127,79.56187 -72.96549,104.52645 47.8995,16.744514 77.93817,55.307694 77.93817,55.307694 73.67593,108.788661 122.99613,23.848266 122.99613,23.848266 -66.26773,38.1572371 -73.16849,-50.741036 -73.16849,-50.741036 z m -235.64121,5.58153 c -14.10598,0 -27.80606,-1.52223 -40.99868,-4.56669 18.26677,47.89951 7.50964,96.509373 7.50964,96.509373 -36.83793,126.243613 60.07733,110.006503 60.07733,110.006503 -71.64623,-26.58832 -7.50964,-88.695263 -7.50964,-88.695263 78.44555,-66.26776 73.47296,-113.050973 65.3544,-133.347353 -25.3705,12.88821 -54.08988,20.09343 -84.43305,20.09343 z M 288.48017,-166.22612 c -19.99199,46.37728 -60.28034,73.574454 -60.28034,73.574454 -113.45685,66.166246 -31.96686,121.068013 -31.96686,121.068013 -33.69198,-68.601795 55.5107,-69.515152 55.5107,-69.515152 91.02935,5.175548 123.80805,-23.645271 135.57995,-44.449131 -41.60761,-14.511944 -76.51744,-43.434304 -98.84345,-80.678184 z"
       id="path1064" />
  </g>
  <g
     inkscape:groupmode="layer"
     id="layer1"
     inkscape:label="Cloud"
     style="display:none">
    <path
       style="fill:#d7d7d7;fill-opacity:0.735593;stroke:#000000;stroke-width:1px;stroke-linecap:butt;stroke-linejoin:miter;stroke-opacity:1"
       d="m 359.67704,559.50776 c 27.21844,-33.61687 67.21654,-65.27157 130.46243,-27.17856 22.49163,-40.4982 76.00758,-75.61329 141.45647,-74.00257 65.4489,1.61072 111.5765,53.94805 133.01488,97.44878 16.80391,-49.63912 73.40535,-72.31728 134.35943,-38.36876 60.95408,33.94852 29.58583,111.92471 1.21061,129.63126 38.09901,28.82259 20.47342,102.06945 0.82963,120.04019 -19.64379,17.97074 -98.42278,32.97817 -111.76395,-1.10172 -2.94822,45.5421 -16.81487,64.69892 -70.33815,80.21046 -53.52329,15.51154 -114.90877,7.2217 -128.27833,-44.63222 -3.7276,29.53565 -44.02681,35.68492 -67.33139,27.58859 -23.30458,-8.09633 -62.82468,-31.62063 -44.61111,-57.80548 -24.91706,53.87666 -103.29304,27.7569 -118.02834,4.4841 -14.7353,-23.2728 -17.40117,-95.10567 22.52323,-93.87483 -26.57047,-4.48364 -50.72384,-88.82236 -23.50541,-122.43924 z"
       id="path429"
       sodipodi:nodetypes="zczczczczczczcz" />
  </g>
  <g
     inkscape:groupmode="layer"
     id="layer2"
     inkscape:label="Lightning Bolt"
     style="display:none">
    <path
       style="display:inline;fill:#fdffb1;fill-opacity:0.871186;stroke:#000000;stroke-width:1px;stroke-linecap:butt;stroke-linejoin:miter;stroke-opacity:1"
       d="m 639.62159,110.17559 184.05465,-8.26131 -221.5171,258.46101 166.13782,1.18019 L 491.40059,645.98061 597.27273,621.19668 305.71714,924.50481 440.90773,675.4853 361.09642,702.6296 584.2423,406.4026 460.45334,422.92523 Z"
       id="path357"
       sodipodi:nodetypes="cccccccccccc" />
  </g>
  <g
     inkscape:groupmode="layer"
     id="layer3"
     inkscape:label="Mountains">
    <path
       sodipodi:type="star"
       style="fill:#3f3b31;fill-opacity:1;stroke:#feffff;stroke-width:8;stroke-linecap:round;stroke-dasharray:none;stroke-opacity:1;paint-order:markers stroke fill"
       id="path2"
       inkscape:flatsided="true"
       sodipodi:sides="3"
       sodipodi:cx="253.80122"
       sodipodi:cy="143.23436"
       sodipodi:r1="150.23282"
       sodipodi:r2="75.116409"
       sodipodi:arg1="0.51603409"
       sodipodi:arg2="1.5632316"
       inkscape:rounded="0"
       inkscape:randomized="0"
       d="M 384.47117,217.36442 124.26774,219.33282 252.66477,-6.9941604 Z"
       inkscape:transform-center-x="-0.98551578"
       inkscape:transform-center-y="-75.459694"
       transform="matrix(1.7343833,0,0,2.0358729,-176.14715,559.86522)" />
    <path
       sodipodi:type="star"
       style="fill:#3f3b31;fill-opacity:1;stroke:#feffff;stroke-width:8;stroke-linecap:round;stroke-dasharray:none;stroke-opacity:1;paint-order:markers stroke fill"
       id="path2-9"
       inkscape:flatsided="true"
       sodipodi:sides="3"
       sodipodi:cx="253.80122"
       sodipodi:cy="143.23436"
       sodipodi:r1="150.23282"
       sodipodi:r2="75.116409"
       sodipodi:arg1="0.51603409"
       sodipodi:arg2="1.5632316"
       inkscape:rounded="0"
       inkscape:randomized="0"
       d="M 384.47117,217.36442 124.26774,219.33282 252.66477,-6.9941604 Z"
       inkscape:transform-center-x="-0.98768006"
       inkscape:transform-center-y="-69.247417"
       transform="matrix(1.7382107,0,0,1.8682683,72.698563,592.49476)" />
    <path
       sodipodi:type="star"
       style="fill:#3f3b31;fill-opacity:1;stroke:#feffff;stroke-width:8;stroke-linecap:round;stroke-dasharray:none;stroke-opacity:1;paint-order:markers stroke fill"
       id="path2-2"
       inkscape:flatsided="true"
       sodipodi:sides="3"
       sodipodi:cx="253.80122"
       sodipodi:cy="143.23436"
       sodipodi:r1="150.23282"
       sodipodi:r2="75.116409"
       sodipodi:arg1="0.51603409"
       sodipodi:arg2="1.5632316"
       inkscape:rounded="0"
       inkscape:randomized="0"
       d="M 384.47117,217.36442 124.26774,219.33282 252.66477,-6.9941604 Z"
       inkscape:transform-center-x="-0.98551578"
       inkscape:transform-center-y="-75.459694"
       transform="matrix(1.7343833,0,0,2.0358729,243.43299,500.42005)" />
    <path
       id="path2-7"
       style="fill:#3f3c32;fill-opacity:1;stroke:#feffff;stroke-width:15.0327;stroke-linecap:round;stroke-dasharray:none;stroke-opacity:1;paint-order:markers stroke fill"
       inkscape:transform-center-x="-0.98551578"
       inkscape:transform-center-y="-75.459694"
       d="m 847.78126,544.1317 -222.68946,460.7733 382.0627,-3.4921 V 884.95786 Z"
       sodipodi:nodetypes="ccccc" />
    <rect
       style="display:inline;fill:#7a7467;fill-opacity:1;stroke:none;stroke-width:5.03;stroke-linecap:round;stroke-dasharray:none;stroke-opacity:1;paint-order:markers stroke fill"
       id="rect2"
       width="1024"
       height="134.43924"
       x="0"
       y="-1023.9999"
       ry="2.6379795"
       transform="scale(1,-1)" />
  </g>
</svg>
